<?xml version="1.0" encoding="UTF-8"?> <svg xmlns="http://www.w3.org/2000/svg" id="Ñëîé_1" data-name="Ñëîé 1" viewBox="0 0 600 600"><defs><style>.cls-7{fill:#679d01}.cls-8{fill:#86b414}.cls-9{fill:#c94f4f}.cls-10{fill:#e25a5a}.cls-11{fill:#ce6c24}.cls-12{fill:#db7726}.cls-15{fill:#f2afa6}.cls-16{fill:#f29549}.cls-18{fill:#b23b3b}</style></defs><path d="M600 300a287.84 287.84 0 0 1-1.8 32.4c-.9 8.5-2.2 16.8-3.8 25.1-.9 4.6-1.9 9.1-3 13.6-.6 2.7-1.3 5.4-2.1 8a309.34 309.34 0 0 1-13.7 39.3 299.54 299.54 0 0 1-271.4 181.5h-.1c-2.2.1-4.3.1-6.4.1h-1.9c-2.8 0-5.6-.1-8.3-.3q-3.5-.12-6.95-.33a266.11 266.11 0 0 1-35.15-4.47h-.2c-4.5-.9-9.1-1.8-13.6-2.9l-3.7-.9c-2-.4-3.9-1-5.8-1.5A300.09 300.09 0 0 1 0 300C0 134.3 134.3 0 300 0c146.4 0 268.3 104.9 294.6 243.7a282.8 282.8 0 0 1 4.81 37.43q.59 9.35.59 18.87Z" style="fill:#3598db"></path><path d="M600 300a287.84 287.84 0 0 1-1.8 32.4c-.9 8.5-2.2 16.8-3.8 25.1-.9 4.6-1.9 9.1-3 13.6-.6 2.7-1.3 5.4-2.1 8a309.34 309.34 0 0 1-13.7 39.3 299.54 299.54 0 0 1-271.4 181.5h-.1c-2.2.1-4.3.1-6.4.1h-1.9c-2.8 0-5.6-.1-8.3-.3q-3.5-.12-6.95-.33L148.43 467.25 467.9 149.62l131.51 131.51q.59 9.35.59 18.87Z" style="fill:#2286b2"></path><path d="M234.2 457.9c-87.2-36.3-128.4-136.5-92.1-223.7A171 171 0 0 1 300 129V74.33c-88.34 0-172.23 52.27-208.3 138.87-47.9 115 6.5 247.2 121.5 295.1a224.83 224.83 0 0 0 86.8 17.37v-54.62a170.64 170.64 0 0 1-65.8-13.15Z" style="fill:#efefef"></path><path d="M386.8 91.7A224.83 224.83 0 0 0 300 74.33V129a170.64 170.64 0 0 1 65.8 13.15c87.2 36.3 128.4 136.5 92.1 223.7A171 171 0 0 1 300 471.05v54.62c88.34 0 172.23-52.27 208.3-138.87 47.9-115-6.5-247.2-121.5-295.1Z" style="fill:#e2e2e2"></path><path d="M457.9 365.8c36.3-87.2-4.9-187.4-92.1-223.7A170.64 170.64 0 0 0 300 129v342.1a171 171 0 0 0 157.9-105.3Z" style="fill:#f2f2f2"></path><path d="M142.1 234.2c-36.3 87.2 4.9 187.4 92.1 223.7a170.64 170.64 0 0 0 65.8 13.15V129a171 171 0 0 0-157.9 105.2Z" style="fill:#fff"></path><path d="M479.87 321.7c2.48 5.07 2.25 24.88 2.25 24.88a18.55 18.55 0 0 0 13.4 10.47c10.8 2.25 9.23 16.43-3.38 14.3 7.21 8.78 3.94 30.39-18.46 27.24a25.34 25.34 0 0 1-2.7-.45c.56.9 1 1.8 1.46 2.7 6.08 13.05-5.4 19.24-9.34 21.38-2.25 1.24-5.18 1.69-7.43-.45l-.22-.22c-1.8-1.8-3-5.18-3.38-11.14A50.9 50.9 0 0 0 444 386l-.11-.11a9.2 9.2 0 0 1-1.35 4.05 11.62 11.62 0 0 1-1 1.46v.11c-.23.23-.34.45-.68.79 0 0 0 .11-.22.23a28.89 28.89 0 0 1-2.59 2.81c-.79.68-1.58 1.35-2.59 2.14-.9-15.31-19.7-23.86-19.7-23.86l.11-.45h.23a42.89 42.89 0 0 0 48.4-36.47 40.35 40.35 0 0 0-2.5-21.07v-.23a11.8 11.8 0 0 0 .56-2.7 46 46 0 0 0 .34-9.57h.1s5.29 1.8 11.14-4.39c4.62-1.35 30.06 7.32 37.82 16.21s-5.29 16.44-11.82 18.8c-5.75 2.14-8.45-1.58-20.27-12.05Z" class="cls-7"></path><path d="M367.31 256.31h-.11a42.39 42.39 0 0 0-9.46 3 173.71 173.71 0 0 1 .68-20.26s1.91-1.91 3.49-1.35c.11 0 .11 0 .22.12h.11c1 .45 2 1.8 2.37 5.17a75.38 75.38 0 0 0 2.7 13.32Z" class="cls-8"></path><path d="M367.31 256.31h-.11a42.39 42.39 0 0 0-9.46 3c.57 23.31 7 45.93 25.67 64.17a57.69 57.69 0 0 1 3.49 3.82h-.12a49.18 49.18 0 0 1 5.29 7l.9-.56a42.56 42.56 0 0 0 6-.26c-6.15-13.29-15.63-37.13-21.51-54.64-4.38-5.93-7.89-14.17-10.15-22.53Z" class="cls-9"></path><path d="M429.33 264.64a42.92 42.92 0 0 0-17.67-13.51h-1c.33 6.75.33 14.18 0 20.94a15 15 0 0 1-1.92 6.64c-5 9.45-18.57 8.78-18.57 8.78-4.74-.21-9-3.62-12.71-8.64 5.88 17.51 15.36 41.35 21.51 54.64a42.14 42.14 0 0 0 38.93-36.55 42.8 42.8 0 0 0-8.57-32.3Z" class="cls-10"></path><path d="M498.11 273.87c-12.16-1.35-10.92 6.86-19.59 1s3.15 13.17-4.39 23.86c-5.85 6.19-11.14 4.39-11.14 4.39h-.11a43.5 43.5 0 0 0-20.94-33.43s15-14.86 0-16.43c3.38-4.17.67-10.58-3.6-14.07 8.1 4.5 14.4-1 11.48-9.35 7.65 3.38 8.44-4.95 8.55-7.76 0 .78.45 1.23 1.24 1.57 4.95 1.8 10.47 5.63 16.1 16.32s21.38 15.76 26.45 17.11 8.22 18.02-4.05 16.79ZM441.6 449c6.53 14.64-27.35 5.18-18.46-6.75-4.95.56-9.23.45-12.16-.68-3.71-1.46-5.29-4.61-3.26-10.35-10.69 7.43-19.59.11-17.22-16.55 4.16-12.27 8.55-25.33 9.45-36a50.72 50.72 0 0 0 1.13-10.47h.11a42.44 42.44 0 0 0 14.63 5l-.11.45s18.8 8.55 19.7 23.86c7.88-6 8.44-10.69 8.44-11.71 0 0 7.54 10.92 8.22 24.66.34 6 1.58 9.34 3.38 11.14l.22.22a7.18 7.18 0 0 1 1.13 1.47c8.1 10.86-1.13 29.33-15.2 25.71ZM216.59 458.81c-9.23 10.8-16.44 4.95-22.74-2.37-5.29 4.73-18.68 2-15.65-9.11-8.1-7.1-2.13-16.55-2.13-16.55 5-.9 9.22-4.28 7.76-8.67 9.34-1.35 7.09-14.18-2.47-12.72 9.79-4.61 3.82-17.56-5.07-14 6.64-6.53-1.12-9.56 8.22-9.79 8.78-.22 13.84-3.15 14.4-3.6 3 21 17.56 49.64 16.89 64a49.07 49.07 0 0 0 .79 12.81Z" class="cls-8"></path><path d="M288.29 435.62a11.47 11.47 0 0 1-.23 8.89v.11c-3.15 7.21-13.73 10.59-21.61 4.39.45 13.85-21.38-2.13-13.73-11-7.65-5-1.8-16.54-8.56-12.49s-10 3.6-14.18-2.14v-.11a2.7 2.7 0 0 1 .23-1.58 17.82 17.82 0 0 1 .67-3.49 27.54 27.54 0 0 1 3.27-8.55 3 3 0 0 0 .34-.57.11.11 0 0 1 .11-.11.61.61 0 0 1 .34-.56 4.07 4.07 0 0 1 .56-1l.67-1a1.4 1.4 0 0 1 .57-.56 1.05 1.05 0 0 1 .45-.56c0-.12.11-.23.22-.34a3.05 3.05 0 0 1 .56-.68 8.48 8.48 0 0 1 .9-.9 5.24 5.24 0 0 1 .79-.78 27.51 27.51 0 0 1 4.62-3.72 20.48 20.48 0 0 1 3-1.69c4.61 4.95 25.32 12.38 39.17 17a47 47 0 0 0 6.55 1.52c6.88 13.39 5.08 21.49-4.71 19.92Z" class="cls-7"></path><path d="M331.06 439.78c6.08 6.87-5.06 17.34-13.5 13.29 1.46 9.23-16.55 9.56-18.24 3.37-7.77 3.38-10.36-.9-11.26-11.82v-.11a11.47 11.47 0 0 0 .23-8.89c9.79 1.57 11.59-6.53 4.73-19.92a15.7 15.7 0 0 0 2.14.22h.33a.43.43 0 0 0 .34.11h.79a18.9 18.9 0 0 0 2.48.23h.9a3.6 3.6 0 0 0 1.12-.12 4.34 4.34 0 0 0 1.13-.11h.9l2.59-.33c.11 0 .22-.12.33-.12a25.47 25.47 0 0 0 4.06-.9c.67-.22 1.35-.34 2-.56 8.67-2.93 19.81-6.87 28.26-10.58-6.31 8.44-4.39 14 3.82 16.21-4.5 4.95-1.46 9.9.57 12.27-3.7-1.47-10.78 5.85-13.72 7.76ZM411 441.58c-.11 2.26-1.35 27.24-28.25 10.47a53.82 53.82 0 0 0 0-6c-.22-7.54 3.6-19.14 7.77-31.41-2.37 16.66 6.53 24 17.22 16.55-2.05 5.81-.47 8.93 3.26 10.39Z" class="cls-8"></path><path d="M410.65 272.07a15 15 0 0 1-1.92 6.64c-11.48-4.84-21.83-46.38-21.83-46.38 1.12-10.92 4.27-32.64 8.77-48.51a2.66 2.66 0 0 1 .23-.9c2.81-9.91 6.3-17.34 10-17.79-.68 3.94-.68 11.6-.34 20.26.68 17.45 2.82 39.17 3.38 43.45.22 1.47.45 3.94.78 6.87v1c.34 4.05.68 9 .91 14.41.37 6.76.37 14.19.02 20.95Z" class="cls-11"></path><path d="M464.45 336.68a42.89 42.89 0 0 1-48.4 36.47h-.23a42.44 42.44 0 0 1-14.63-5h-.11A67 67 0 0 0 397 344.1l1.35-.44c5.29 3.82 8.55 4.5 15.53 5.51A43 43 0 0 0 462 315.63a40.35 40.35 0 0 1 2.45 21.05Z" class="cls-10"></path><path d="M441.94 269.7a44.21 44.21 0 0 0-12.61-5.06 42.92 42.92 0 0 0-17.67-13.51h-1c-.23-5.41-.57-10.36-.91-14.41v-1c.57-9.91 19.37-12.16 18 3.6 2.81-3.83 7.2-2.93 10.58-.11 4.27 3.49 7 9.9 3.6 14.07 14.98 1.56.01 16.42.01 16.42Z" class="cls-7"></path><path d="M462.88 303.13a46 46 0 0 1-.34 9.57 11.8 11.8 0 0 1-.56 2.7v.23a43 43 0 0 1-48.07 33.54c-7-1-10.24-1.69-15.53-5.51l-1.35.44a67.77 67.77 0 0 0-5-9.79l.9-.56a42.91 42.91 0 0 0 36.36-69.11 44.21 44.21 0 0 1 12.61 5.06 43.5 43.5 0 0 1 20.98 33.43Z" class="cls-10"></path><path d="M362.13 237.85v-.12h-.22c-1.58-.56-3.49 1.35-3.49 1.35-2.7 30.28.9 60.9 25 84.43a57.69 57.69 0 0 1 3.49 3.82h-.12a49.18 49.18 0 0 1 5.29 7 67.77 67.77 0 0 1 5 9.79 67 67 0 0 1 4.05 24.09 50.72 50.72 0 0 1-1.13 10.45c-.9 10.69-5.29 23.75-9.45 36s-8 23.87-7.77 31.41a53.82 53.82 0 0 1 0 6c-.34 11.82-4.39 18.69-17.22 13.4-3.49-1.47-5.18-3-5.63-4.84-1.8-6.08 8.78-14.86 9.23-29.72.56-19.47-8.89-29.49-17.78-33.77-1.81 1.8-5.75 4.05-10.81 6.42h-.11c-8.45 3.71-19.59 7.65-28.26 10.58-.67.22-1.35.34-2 .56-1.35.34-2.7.68-4.06.9-.11 0-.22.12-.33.12l-2.59.33h-.9a4.34 4.34 0 0 1-1.13.11 3.6 3.6 0 0 1-1.12.12h-.68V136.31a25.76 25.76 0 0 1 10.7 2.48 202.67 202.67 0 0 0 24.31 9.46c1.8.56 3.71 1.23 5.63 1.8 29.15 9 41.87 51.66 46.94 82.28 0 0 10.35 41.54 21.83 46.38-5 9.45-18.57 8.78-18.57 8.78-13.4-.57-23.41-25.89-25.55-44.47-.34-3.37-1.35-4.72-2.37-5.17Z" class="cls-12"></path><path d="M386.9 327.33h-.12A62.93 62.93 0 0 1 360 309.55c-14.41-16.21-18.35-37.48-18.35-51.89a59.75 59.75 0 0 1 .68-9.8c2.81-16.77 14.86-14.85 19.81-10.13l.11.12c-.11 0-.22-.12-.33-.12-1.58-.56-3.49 1.35-3.49 1.35-2.7 30.28.9 60.9 25 84.43 1.21 1.23 2.34 2.49 3.47 3.82ZM300 416.14h1.12a3.6 3.6 0 0 1-1.12.12Z" class="cls-11"></path><path d="M359.88 460.61c-3.38 10.8-18.57-2.37-9.91-9.46-7.76-.45-8.21-7.88-2.81-12.72q0-3.54-1-5.06a2.28 2.28 0 0 0-1.36-1.37c-2-2.37-5.07-7.32-.57-12.27-8.21-2.25-10.13-7.77-3.82-16.21h.11c5.06-2.37 9-4.62 10.81-6.42 8.89 4.28 18.34 14.3 17.78 33.77-.45 14.88-11.03 23.66-9.23 29.74Z" class="cls-7"></path><path d="M351.33 397.12c-1.81 1.8-5.75 4.05-10.81 6.42h-.11c-8.45 3.71-19.59 7.65-28.26 10.58-.67.22-1.35.34-2 .56-1.35.34-2.7.68-4.06.9-.11 0-.22.12-.33.12l-2.59.33h-.68c3.38-.45 10.36-1.91 13.51-7.65 9.77-16.21 27.56-14.07 35.33-11.26Z" class="cls-11"></path><path d="M217.94 320.58a17.5 17.5 0 0 0 1.12-6.42 20.58 20.58 0 0 0-20.48-20.6 15.83 15.83 0 0 0-5.63.91 18.37 18.37 0 0 0 4.39-9 6.17 6.17 0 0 0 1.24.56h.33a28.08 28.08 0 0 0 9.46 1.47c13.51-.57 23.53-25.89 25.55-44.47a3.37 3.37 0 0 1 .23-1.12 3.27 3.27 0 0 1 .22-1 1.88 1.88 0 0 1 .34-1 5.63 5.63 0 0 1 .34-.79 1.09 1.09 0 0 1 .45-.56.11.11 0 0 1 .11-.11.25.25 0 0 1 .23-.23c.11-.11.11-.22.22-.22a1.67 1.67 0 0 1 .68-.23h.26v.12c.11-.12.23-.12.45-.12h.55l.12.12h.22a.35.35 0 0 0 .23.11 6.32 6.32 0 0 1 1.69 1.12c0 .57.11 1.13.11 1.69 2.33 28.44-1.16 57.19-22.43 79.77Z" class="cls-8"></path><path d="M207.69 332.51a59.32 59.32 0 0 0-9 21.84h-.11s-5.41 5.4-11.15 2.14c-.67 5.29-3.6 10.58-8 10 .23 5.07-7.2 4.62-9.68 2.82-.22 7.2-3.71 8.67-12.38 7.88-5.4 6.19-11.82 12.83-12.94 18a16.28 16.28 0 0 1-1.36 3.94 5 5 0 0 0-.45 1c-1.68 2.25-4 3-7.76-.11-5.86-4.84-4.28-7.77-1.58-10.47s-2.25-14.63 2-15.08 10-5.63 7.09-7.55-4.5-8.1-2.25-10.12 27-31.86 27.24-33.77 3-8.33-.45-8.78-8-.57-11.82 4.72-4 13.4-7.09 12.72c0 0-11.82-4.84-5-14s7.43-17.45 5.29-21-3.48-15.09 1.24-20.49c-9.23 2.7-13.62-9.12-22.51-1.13s-7.65-6.64-4-8.21 6.41-10-8.67-8c2.36-10 9.57-22.74 19.36-22.74a11.19 11.19 0 0 1 2.93.45.4.4 0 0 0 .33.11 22.6 22.6 0 0 0 3.38 2.14.86.86 0 0 1 .45.22c4.28 3.94 6.64 10.47 11.6 11.37 7.09 1.24 1.91-18.91 22.28-1.57a20.13 20.13 0 0 0 5.66 10.16l7.32 1.69v2.7c0 2.92.11 5.85.22 8.67a15.07 15.07 0 0 0 1.58 6.41l.11.11a14.75 14.75 0 0 0 7.77 6.87 18.37 18.37 0 0 1-4.39 9 85.38 85.38 0 0 0-8.33 4.83 20.47 20.47 0 0 0 14 35.35 20.12 20.12 0 0 0 9.07-2.12Z" class="cls-8"></path><path d="M219.06 314.16a17.5 17.5 0 0 1-1.12 6.42v.11c-.9 1-1.8 1.92-2.7 2.82a60.09 60.09 0 0 0-7.55 9 20.12 20.12 0 0 1-9.11 2.14 20.47 20.47 0 0 1-14-35.35c3.47-1.8 4.71-3.65 8.33-4.83a15.83 15.83 0 0 1 5.63-.91 20.58 20.58 0 0 1 20.52 20.6Z" style="fill:#fc5147"></path><path d="M215 302c.84 11.46-12.7 30.71-29.17 28a20.07 20.07 0 0 0 21.89 2.53 60.09 60.09 0 0 1 7.55-9c.9-.9 1.8-1.81 2.7-2.82v-.11a17.5 17.5 0 0 0 1.12-6.42A20.48 20.48 0 0 0 215 302Z" style="fill:#e2413d"></path><path d="M193.88 300.76c1.23 1.1.56 3.87-1.51 6.2s-4.74 3.31-6 2.21-.56-3.87 1.5-6.19 4.77-3.31 6.01-2.22Z" class="cls-15"></path><path d="M211.75 232.33c-3.6 15.76-13.28 54.71-22.18 46.26l-.11-.11a15.07 15.07 0 0 1-1.58-6.41c-.11-2.82-.22-5.75-.22-8.67v-2.7a296.58 296.58 0 0 1 2-31.86c.12-.79.23-2 .46-3.83 1.35-12.83 4.39-49.52 2.58-59.88 9.82 1.24 17.3 49.19 19.05 67.2Z" class="cls-16"></path><path d="M299.32 136.31v280h-.22a8 8 0 0 1-1.69-.12l-.12-.11h-1.35a.7.7 0 0 1-.45-.11h-.33a15.7 15.7 0 0 1-2.14-.22 47 47 0 0 1-6.53-1.58c-13.85-4.62-34.56-12.05-39.17-17a20.48 20.48 0 0 0-3 1.69 27.51 27.51 0 0 0-4.62 3.72 1.79 1.79 0 0 0-.79.78 8.48 8.48 0 0 0-.9.9 3.05 3.05 0 0 0-.56.68c-.11.11-.22.22-.22.34a1.05 1.05 0 0 0-.45.56 1.4 1.4 0 0 0-.57.56l-.67 1a4.07 4.07 0 0 0-.56 1 .61.61 0 0 0-.34.56.11.11 0 0 0-.11.11 3 3 0 0 1-.34.57 27.54 27.54 0 0 0-3.27 8.55 17.82 17.82 0 0 0-.67 3.49 2.7 2.7 0 0 0-.23 1.58v.11c-.11.11-.11.11-.11.22a1.3 1.3 0 0 0 0 .91c-.11.11-.11.11 0 .22-.11.11-.11.23-.11.45a.21.21 0 0 0 0 .34.21.21 0 0 0 0 .34 3.21 3.21 0 0 0-.12 1.12 2.37 2.37 0 0 0 0 1.24 1.44 1.44 0 0 0-.11.67v2a39.57 39.57 0 0 0 1.13 7.77.38.38 0 0 1 .11.22 47.81 47.81 0 0 0 2.48 6.76.11.11 0 0 0 .11.11c.22.56.45 1.13.68 1.58.11.11.11.22.22.33.34.68.68 1.35.9 1.92a.11.11 0 0 1 .11.11c3.83 7.32 6.64 12.16-2.25 15.76-10 4.16-14.63.79-16.43-6.64a49.07 49.07 0 0 1-.79-12.72c.67-14.41-13.85-43-16.89-64-.11-1.24-.22-2.25-.33-3.38a64.81 64.81 0 0 1 .11-24.31 59.32 59.32 0 0 1 9-21.84 60.09 60.09 0 0 1 7.55-9c.9-.9 1.8-1.81 2.7-2.82v-.11c21.27-22.63 24.76-51.33 22.4-79.81 0-.56-.11-1.12-.11-1.69a6.32 6.32 0 0 0-1.69-1.12c-.12-.23-.12-.23-.23-.11h-.22l-.12-.12h-.56c-.11-.11-.11-.11-.22-.11h-.12l-.11.11h-.22a1.67 1.67 0 0 0-.68.23c-.11 0-.11.11-.22.22a.25.25 0 0 0-.23.23.11.11 0 0 0-.11.11 1.09 1.09 0 0 0-.45.56 5.63 5.63 0 0 0-.34.79 2.92 2.92 0 0 0-.34 1 3.27 3.27 0 0 0-.22 1 3.37 3.37 0 0 0-.23 1.12c-2 18.58-12 43.9-25.55 44.47a28.08 28.08 0 0 1-9.46-1.47h-.33a6.17 6.17 0 0 1-1.24-.56 14.75 14.75 0 0 1-7.77-6.87c8.9 8.45 18.58-30.5 22.18-46.26 4.72-29 16.43-68.78 42.32-80.59a30.37 30.37 0 0 1 4.5-1.69 234.58 234.58 0 0 0 30.06-11.26 25.68 25.68 0 0 1 10.65-2.49Z" style="fill:#e98a2e"></path><path d="M240.23 238.75v.33a5.06 5.06 0 0 0-2.71-1.35h-.11c-.11-.11-.11-.11-.22-.11h-.12a.4.4 0 0 0-.33.11 1.67 1.67 0 0 0-.68.23c-.11 0-.11.11-.22.22a.25.25 0 0 0-.23.23.11.11 0 0 0-.11.11 1.09 1.09 0 0 0-.45.56 5.63 5.63 0 0 0-.34.79 1.88 1.88 0 0 0-.34 1 3.27 3.27 0 0 0-.22 1 3.37 3.37 0 0 0-.23 1.12c-2 18.58-12 43.9-25.55 44.47a28.08 28.08 0 0 1-9.46-1.47c11.82 1 16.21-6.19 24.21-34.89 7.31-27 14.85-34.56 16.88-15.42a28 28 0 0 0 .23 3.07ZM247.32 397.12a20.48 20.48 0 0 0-3 1.69 27.51 27.51 0 0 0-4.62 3.72 1.79 1.79 0 0 0-.79.78 8.48 8.48 0 0 0-.9.9 3.05 3.05 0 0 0-.56.68c-.11.11-.22.22-.22.34a1.05 1.05 0 0 0-.45.56 1.4 1.4 0 0 0-.57.56l-.67 1a4.07 4.07 0 0 0-.56 1 .61.61 0 0 0-.34.56.11.11 0 0 0-.11.11 3 3 0 0 1-.34.57 27.54 27.54 0 0 0-3.27 8.55 17.82 17.82 0 0 0-.67 3.49 2.7 2.7 0 0 0-.23 1.58v.11c-.11.11-.11.11-.11.22a1.3 1.3 0 0 0 0 .91c-.11.11-.11.11 0 .22-.11.11-.11.23-.11.45a.21.21 0 0 0 0 .34.21.21 0 0 0 0 .34 3.21 3.21 0 0 0-.12 1.12 2.37 2.37 0 0 0 0 1.24 1.44 1.44 0 0 0-.11.67v2a39.57 39.57 0 0 0 1.13 7.77.38.38 0 0 1 .11.22 47.81 47.81 0 0 0 2.48 6.76.11.11 0 0 0 .11.11c.22.56.45 1.13.68 1.58.11.11.11.22.22.33.34.68.68 1.35.9 1.92-21.72-14.41-8.22-46.27-3.6-51.11s10.99-7.14 15.72-1.29Z" class="cls-12"></path><path d="M257.45 257.66c0 14.41-3.94 35.68-18.35 51.89a63.33 63.33 0 0 1-26.9 17.78c1.12-1.35 2.25-2.59 3.49-3.82 24.09-23.53 27.69-54.15 25-84.43a4.2 4.2 0 0 0-.45-.33 3.28 3.28 0 0 0-2.71-1h-.11a1 1 0 0 0-.56.12l.22-.23h.12a8.14 8.14 0 0 1 2.81-1.91c5.74-2.82 14.41-1.8 16.77 12.15a59.75 59.75 0 0 1 .67 9.78ZM299.1 416.14v.12a30.52 30.52 0 0 1-3.16-.23.7.7 0 0 1-.45-.11h-.33a50.82 50.82 0 0 1-8.22-1.8c-13.85-4.62-34.45-12.05-39.17-17 7.76-2.81 25.55-4.95 35.34 11.26 3 5.4 9.34 7 12.72 7.54 2.17.22 3.27.22 3.27.22Z" class="cls-16"></path><path d="M415.69 298.9a3.06 3.06 0 1 1-3.06-3.06 3.06 3.06 0 0 1 3.06 3.06ZM397.54 303.38a3.06 3.06 0 1 1-3.05-3.06 3.06 3.06 0 0 1 3.05 3.06ZM379.49 287.49a3.06 3.06 0 1 1-3.06-3.05 3.06 3.06 0 0 1 3.06 3.05ZM422.88 272.76a3.06 3.06 0 1 1-3.05-3.06 3 3 0 0 1 3.05 3.06ZM405.58 290.55a3.06 3.06 0 1 1-3.05-3.06 3.06 3.06 0 0 1 3.05 3.06ZM402.53 323.64a3.06 3.06 0 1 1-3.06-3.06 3.06 3.06 0 0 1 3.06 3.06ZM390 318.3a3.06 3.06 0 1 1-3.05-3.05 3.06 3.06 0 0 1 3.05 3.05ZM378.4 303.38a3.06 3.06 0 1 1-3-3.06 3 3 0 0 1 3 3.06ZM368.19 274.31a3.06 3.06 0 1 1-3.06-3.06 3.06 3.06 0 0 1 3.06 3.06ZM428 289.66a3.06 3.06 0 1 1-3-3.05 3.05 3.05 0 0 1 3 3.05ZM428 312.6a3.06 3.06 0 1 1-3-3.05 3.05 3.05 0 0 1 3 3.05ZM429 333.49a3.06 3.06 0 1 1-3.05-3.05 3.05 3.05 0 0 1 3.05 3.05ZM429 360.93a3.06 3.06 0 1 1-3.05-3.05 3.05 3.05 0 0 1 3.05 3.05ZM444.52 363a3.06 3.06 0 1 1-3-3.06 3 3 0 0 1 3 3.06ZM450.92 350.52a3.06 3.06 0 1 1-3.05-3 3.05 3.05 0 0 1 3.05 3ZM461 341.54a3.06 3.06 0 1 1-3.06-3.06 3.05 3.05 0 0 1 3.06 3.06ZM450.92 323.64a3.06 3.06 0 1 1-3.05-3.06 3 3 0 0 1 3.05 3.06ZM444.52 336.55a3.06 3.06 0 1 1-3-3.06 3 3 0 0 1 3 3.06ZM444.52 312.6a3.06 3.06 0 1 1-3-3.05 3.05 3.05 0 0 1 3 3.05Z" class="cls-15"></path><circle cx="454.9" cy="304.84" r="3.06" class="cls-15"></circle><path d="M451.65 293.61a3.06 3.06 0 1 1-3.06-3.06 3.06 3.06 0 0 1 3.06 3.06ZM444.52 283.94a3.06 3.06 0 1 1-3-3.06 3 3 0 0 1 3 3.06ZM412.63 314.11a3.06 3.06 0 1 1-3.05-3.06 3 3 0 0 1 3.05 3.06ZM417 282.21a3.06 3.06 0 1 1-3.05-3 3.06 3.06 0 0 1 3.05 3Z" class="cls-15"></path><path d="m419.43 373.48-3.49-.33h-.23a42.44 42.44 0 0 1-14.63-5H401a66.78 66.78 0 0 0-4.06-24.09h.06l1.35-.44c5.29 3.82 8.55 4.5 15.53 5.51a22.53 22.53 0 0 0 3.83.34 13.89 13.89 0 0 0 2.14.11c.7 4.88 1.83 16.25-.42 23.9Z" class="cls-9"></path><path d="M417.74 349.51a22.53 22.53 0 0 1-3.83-.34c-7-1-10.24-1.69-15.53-5.51l-1.35.44a67.77 67.77 0 0 0-5-9.79l.9-.56a41.52 41.52 0 0 0 16.66-2.48c2.07 3.27 7.02 11.37 8.15 18.24Z" class="cls-9"></path><path d="M441 299.76a43.08 43.08 0 0 1-44.92 36.8l-2.3.77a16 16 0 0 0-1.75-3l.9-.56c22.74-.26 41.76-14.63 44.92-36.81a42.8 42.8 0 0 0-8.56-32.3 41.32 41.32 0 0 0-3.71-4.17 40.11 40.11 0 0 1 6.86 7 42.81 42.81 0 0 1 8.56 32.27Z" class="cls-18"></path><path d="M415.69 341.54a3.06 3.06 0 1 1-3.06-3.06 3.05 3.05 0 0 1 3.06 3.06Z" class="cls-15"></path><path d="M465.24 339.94a44 44 0 0 1-49.75 37.48h-.23a44.4 44.4 0 0 1-15-5.06h-.11l.9-4.17h.11a42.44 42.44 0 0 0 14.63 5h.23a42.89 42.89 0 0 0 48.4-36.47 39.4 39.4 0 0 0-.9-15.88 40.43 40.43 0 0 1 1.72 19.1Z" class="cls-18"></path><path d="M417 365.14a3.06 3.06 0 1 1-3.05-3.06 3 3 0 0 1 3.05 3.06ZM408 354.66a3.06 3.06 0 1 1-3-3.06 3.06 3.06 0 0 1 3 3.06Z" class="cls-15"></path><path d="M462.54 317.77a11.8 11.8 0 0 1-.56 2.7v.22a43 43 0 0 1-48.07 33.55c-7-1-10.24-1.69-15.53-5.52 0 0-2-6.3-1.35-4.62l1.35-.44c5.29 3.82 8.55 4.5 15.53 5.51A43 43 0 0 0 462 315.63v-.23a11.8 11.8 0 0 0 .56-2.7c.11-1.12.22-2.14.34-3.15a40.78 40.78 0 0 1-.36 8.22Z" class="cls-18"></path></svg> 